<svg width="300" height="300" id="Camada_1" data-name="Camada 1" xmlns="http://www.w3.org/2000/svg" xmlns:xlink="http://www.w3.org/1999/xlink" viewBox="177 333 736 334"><defs><style>.cls-1{fill:url(#Gradiente_sem_nome_15);}.cls-2{fill:url(#Gradiente_sem_nome_15-2);}.cls-3{fill:url(#Gradiente_sem_nome_15-3);}.cls-4{fill:url(#Gradiente_sem_nome_15-4);}.cls-5{fill:url(#Gradiente_sem_nome_15-5);}.cls-6{fill:url(#Gradiente_sem_nome_15-6);}.cls-7{fill:url(#Gradiente_sem_nome_17);}.cls-8{fill:url(#Gradiente_sem_nome_17-2);}.cls-9{fill:url(#Gradiente_sem_nome_17-3);}.cls-10{fill:url(#Gradiente_sem_nome_17-4);}.cls-11{fill:url(#Gradiente_sem_nome_17-5);}.cls-12{fill:url(#Gradiente_sem_nome_17-6);}</style><linearGradient id="Gradiente_sem_nome_15" x1="301.35" y1="350.47" x2="301.35" y2="560.08" gradientUnits="userSpaceOnUse"><stop offset="0" stop-color="#e24a19"/><stop offset="1" stop-color="#d6aa01"/></linearGradient><linearGradient id="Gradiente_sem_nome_15-2" x1="350.99" y1="350.47" x2="350.99" y2="560.08" xlink:href="#Gradiente_sem_nome_15"/><linearGradient id="Gradiente_sem_nome_15-3" x1="381.67" y1="350.47" x2="381.67" y2="560.08" xlink:href="#Gradiente_sem_nome_15"/><linearGradient id="Gradiente_sem_nome_15-4" x1="381.67" y1="350.47" x2="381.67" y2="560.08" xlink:href="#Gradiente_sem_nome_15"/><linearGradient id="Gradiente_sem_nome_15-5" x1="350.99" y1="350.47" x2="350.99" y2="560.08" xlink:href="#Gradiente_sem_nome_15"/><linearGradient id="Gradiente_sem_nome_15-6" x1="301.35" y1="350.47" x2="301.35" y2="560.08" xlink:href="#Gradiente_sem_nome_15"/><linearGradient id="Gradiente_sem_nome_17" x1="301.35" y1="429.01" x2="301.35" y2="643.46" gradientUnits="userSpaceOnUse"><stop offset="0" stop-color="#017b56"/><stop offset="1" stop-color="#74af25"/></linearGradient><linearGradient id="Gradiente_sem_nome_17-2" x1="301.35" y1="429.01" x2="301.35" y2="643.46" xlink:href="#Gradiente_sem_nome_17"/><linearGradient id="Gradiente_sem_nome_17-3" x1="251.71" y1="429.01" x2="251.71" y2="643.46" xlink:href="#Gradiente_sem_nome_17"/><linearGradient id="Gradiente_sem_nome_17-4" x1="221.04" y1="429.01" x2="221.04" y2="643.46" xlink:href="#Gradiente_sem_nome_17"/><linearGradient id="Gradiente_sem_nome_17-5" x1="221.04" y1="429.01" x2="221.04" y2="643.46" xlink:href="#Gradiente_sem_nome_17"/><linearGradient id="Gradiente_sem_nome_17-6" x1="251.71" y1="429.01" x2="251.71" y2="643.46" xlink:href="#Gradiente_sem_nome_17"/></defs><g id="_Repetição_radial_" data-name="&lt;Repetição radial&gt;"><path class="cls-1" d="M309.64,523.33v37.79a6,6,0,0,1-6.32,6.32h-3.94a6,6,0,0,1-6.32-6.32V523.33a6,6,0,0,1,6.32-6.32h3.94A6,6,0,0,1,309.64,523.33Z"/></g><g id="_Repetição_radial_2" data-name="&lt;Repetição radial&gt;"><path class="cls-2" d="M346.59,505.94l22.21,30.57a6,6,0,0,1-1.4,8.83l-3.18,2.31a6,6,0,0,1-8.83-1.4l-22.21-30.57a6,6,0,0,1,1.4-8.82l3.18-2.32A6,6,0,0,1,346.59,505.94Z"/></g><g id="_Repetição_radial_3" data-name="&lt;Repetição radial&gt;"><path class="cls-3" d="M366.26,470.15l35.93,11.68a6,6,0,0,1,4.06,8L405,493.53a6,6,0,0,1-8,4.06l-35.93-11.67a6,6,0,0,1-4.06-8l1.22-3.74A6,6,0,0,1,366.26,470.15Z"/></g><g id="_Repetição_radial_4" data-name="&lt;Repetição radial&gt;"><path class="cls-4" d="M361.14,429.64,397.07,418a6,6,0,0,1,8,4.06l1.21,3.74a6,6,0,0,1-4.06,8L366.26,445.4a6,6,0,0,1-8-4.06l-1.22-3.74A6,6,0,0,1,361.14,429.64Z"/></g><g id="_Repetição_radial_5" data-name="&lt;Repetição radial&gt;"><path class="cls-5" d="M333.18,399.87l22.21-30.57a6,6,0,0,1,8.83-1.4l3.18,2.31a6,6,0,0,1,1.4,8.83l-22.21,30.57a6,6,0,0,1-8.83,1.4l-3.18-2.31A6,6,0,0,1,333.18,399.87Z"/></g><g id="_Repetição_radial_6" data-name="&lt;Repetição radial&gt;"><path class="cls-6" d="M293.06,392.22V354.44a6,6,0,0,1,6.32-6.33h3.94a6,6,0,0,1,6.32,6.33v37.78a6,6,0,0,1-6.32,6.32h-3.94A6,6,0,0,1,293.06,392.22Z"/></g><g id="_Repetição_radial_7" data-name="&lt;Repetição radial&gt;"><path class="cls-7" d="M309.64,607.78v37.78a6,6,0,0,1-6.32,6.33h-3.94a6,6,0,0,1-6.32-6.33V607.78a6,6,0,0,1,6.32-6.32h3.94A6,6,0,0,1,309.64,607.78Z"/></g><g id="_Repetição_radial_8" data-name="&lt;Repetição radial&gt;"><path class="cls-8" d="M293.06,476.67V438.88a6,6,0,0,1,6.32-6.32h3.94a6,6,0,0,1,6.32,6.32v37.79a6,6,0,0,1-6.32,6.32h-3.94A6,6,0,0,1,293.06,476.67Z"/></g><g id="_Repetição_radial_9" data-name="&lt;Repetição radial&gt;"><path class="cls-9" d="M256.11,494.06,233.9,463.49a6,6,0,0,1,1.4-8.83l3.18-2.31a6,6,0,0,1,8.83,1.4l22.21,30.57a6,6,0,0,1-1.4,8.82l-3.18,2.32A6,6,0,0,1,256.11,494.06Z"/></g><g id="_Repetição_radial_10" data-name="&lt;Repetição radial&gt;"><path class="cls-10" d="M236.44,529.85l-35.93-11.68a6,6,0,0,1-4.06-8l1.22-3.74a6,6,0,0,1,8-4.06l35.93,11.68a6,6,0,0,1,4.06,8l-1.21,3.74A6,6,0,0,1,236.44,529.85Z"/></g><g id="_Repetição_radial_11" data-name="&lt;Repetição radial&gt;"><path class="cls-11" d="M241.56,570.36,205.63,582a6,6,0,0,1-8-4.06l-1.22-3.74a6,6,0,0,1,4.06-8l35.93-11.68a6,6,0,0,1,8,4.06l1.21,3.74A6,6,0,0,1,241.56,570.36Z"/></g><g id="_Repetição_radial_12" data-name="&lt;Repetição radial&gt;"><path class="cls-12" d="M269.52,600.13,247.31,630.7a6,6,0,0,1-8.83,1.4l-3.18-2.31a6,6,0,0,1-1.4-8.83l22.21-30.57a6,6,0,0,1,8.83-1.4l3.18,2.31A6,6,0,0,1,269.52,600.13Z"/></g><path d="M479.31 575.09Q476.22 575.09 474.18 573.05Q472.14 571.02 472.14 567.93L472.14 503.87Q472.28 492.77 477.34 483.92Q482.40 475.08 491.11 469.95Q499.81 464.82 510.77 464.82Q521.87 464.82 530.58 469.95Q539.29 475.08 544.41 483.92Q549.54 492.77 549.54 503.87Q549.54 514.97 544.84 523.75Q540.13 532.53 531.98 537.65Q523.84 542.78 513.58 542.78Q505.29 542.78 498.34 539.34Q491.39 535.90 486.47 530L486.47 567.93Q486.47 571.02 484.50 573.05Q482.54 575.09 479.31 575.09M510.77 530.14Q517.94 530.14 523.55 526.70Q529.17 523.26 532.47 517.29Q535.78 511.32 535.78 503.87Q535.78 496.29 532.47 490.32Q529.17 484.35 523.55 480.90Q517.94 477.46 510.77 477.46Q503.75 477.46 498.06 480.90Q492.37 484.35 489.14 490.32Q485.91 496.29 485.91 503.87Q485.91 511.32 489.14 517.29Q492.37 523.26 498.06 526.70Q503.75 530.14 510.77 530.14M584.94 494.18L577.78 494.18Q577.78 485.75 581.92 479.08Q586.06 472.41 593.09 468.47Q600.11 464.54 608.54 464.54Q616.97 464.54 621.11 467.28Q625.25 470.02 624.27 473.81Q623.85 475.78 622.66 476.83Q621.46 477.88 619.92 478.17Q618.37 478.45 616.55 478.03Q607.56 476.20 600.39 477.74Q593.23 479.29 589.08 483.50Q584.94 487.72 584.94 494.18M577.92 542.22Q574.54 542.22 572.72 540.46Q570.89 538.71 570.89 535.20L570.89 472.41Q570.89 469.04 572.72 467.21Q574.54 465.38 577.92 465.38Q581.43 465.38 583.18 467.14Q584.94 468.89 584.94 472.41L584.94 535.20Q584.94 538.57 583.18 540.39Q581.43 542.22 577.92 542.22M665.57 542.78Q655.32 542.78 647.17 537.65Q639.02 532.53 634.31 523.75Q629.61 514.97 629.61 503.87Q629.61 492.77 634.74 483.92Q639.86 475.08 648.64 469.95Q657.42 464.82 668.38 464.82Q679.34 464.82 688.04 469.95Q696.75 475.08 701.88 483.92Q707.01 492.77 707.01 503.87L701.53 503.87Q701.53 514.97 696.82 523.75Q692.12 532.53 683.97 537.65Q675.82 542.78 665.57 542.78M668.38 530.14Q675.54 530.14 681.16 526.70Q686.78 523.26 690.01 517.29Q693.24 511.32 693.24 503.87Q693.24 496.29 690.01 490.32Q686.78 484.35 681.16 480.90Q675.54 477.46 668.38 477.46Q661.36 477.46 655.67 480.90Q649.98 484.35 646.68 490.32Q643.38 496.29 643.38 503.87Q643.38 511.32 646.68 517.29Q649.98 523.26 655.67 526.70Q661.36 530.14 668.38 530.14M699.84 542.36Q696.75 542.36 694.72 540.32Q692.68 538.29 692.68 535.20L692.68 513.70L695.35 498.81L707.01 503.87L707.01 535.20Q707.01 538.29 704.97 540.32Q702.93 542.36 699.84 542.36M793.26 542.36Q790.17 542.36 788.13 540.32Q786.09 538.29 786.09 535.20L786.09 500.64Q786.09 492.63 783.14 487.58Q780.19 482.52 775.21 480.06Q770.22 477.60 763.76 477.60Q757.86 477.60 753.08 479.99Q748.31 482.38 745.50 486.38Q742.69 490.39 742.69 495.58L733.84 495.58Q733.84 486.73 738.12 479.78Q742.41 472.83 749.85 468.75Q757.30 464.68 766.57 464.68Q776.26 464.68 783.92 468.82Q791.57 472.97 796 480.98Q800.42 488.98 800.42 500.64L800.42 535.20Q800.42 538.29 798.38 540.32Q796.35 542.36 793.26 542.36M735.52 542.36Q732.43 542.36 730.40 540.32Q728.36 538.29 728.36 535.20L728.36 472.55Q728.36 469.32 730.40 467.35Q732.43 465.38 735.52 465.38Q738.75 465.38 740.72 467.35Q742.69 469.32 742.69 472.55L742.69 535.20Q742.69 538.29 740.72 540.32Q738.75 542.36 735.52 542.36M856.19 542.78Q845.93 542.78 837.79 537.65Q829.64 532.53 824.93 523.75Q820.23 514.97 820.23 503.87Q820.23 492.77 825.35 483.92Q830.48 475.08 839.26 469.95Q848.04 464.82 859 464.82Q869.95 464.82 878.66 469.95Q887.37 475.08 892.50 483.92Q897.63 492.77 897.63 503.87L892.15 503.87Q892.15 514.97 887.44 523.75Q882.74 532.53 874.59 537.65Q866.44 542.78 856.19 542.78M859 530.14Q866.16 530.14 871.78 526.70Q877.40 523.26 880.63 517.29Q883.86 511.32 883.86 503.87Q883.86 496.29 880.63 490.32Q877.40 484.35 871.78 480.90Q866.16 477.46 859 477.46Q851.97 477.46 846.28 480.90Q840.60 484.35 837.29 490.32Q833.99 496.29 833.99 503.87Q833.99 511.32 837.29 517.29Q840.60 523.26 846.28 526.70Q851.97 530.14 859 530.14M890.46 542.36Q887.37 542.36 885.33 540.32Q883.30 538.29 883.30 535.20L883.30 513.70L885.97 498.81L897.63 503.87L897.63 535.20Q897.63 538.29 895.59 540.32Q893.55 542.36 890.46 542.36" fill="#d6aa01"/></svg>