<svg viewBox="300 120 380 380" width="36" height="36" xmlns:xlink="http://www.w3.org/1999/xlink" xmlns="http://www.w3.org/2000/svg">
  <defs>
    <linearGradient id="fav-g1"><stop offset="0%" stop-color="#ffffff"/><stop offset="100%" stop-color="#a8d8f0"/></linearGradient>
    <linearGradient xlink:href="#fav-g1" id="fav-g2" x1="0" y1="0" x2="0" y2="1" gradientTransform="rotate(45,0.5,0.5)" gradientUnits="objectBoundingBox"/>
  </defs>
  <path d="m 353.1458,178.7655 c -0.3124,-0.0862 -0.6534,-0.3713 -0.9343,-0.5315 -3.5436,3.7556 -4.3843,4.6477 -8.0895,8.8824 -1.758,2.173 -4.6998,5.8107 -10.3527,23.9479 3.0566,-4.047 3.6077,-4.7755 6.7595,-8.598 1.9171,-10.8122 7.9688,-15.6986 10.7819,-10.9866 3.5855,6.0035 -2.9807,20.6462 -8.4646,18.8788 -0.9884,-0.3198 -1.5154,-1.2756 -1.9,-1.9729 -4.6545,5.6593 -9.4663,11.512 -13.8538,18.9853 l -2.2246,3.708 c 1.4695,-8.8095 2.5427,-10.5004 5.8127,-15.5959 2.3088,-7.4209 3.5147,-12.4756 7.5416,-21.4319 4.0323,-8.4357 6.2869,-10.6413 13.8339,-18.6342 2.0835,-6.114 7.9892,-9.8424 9.4649,-7.0276 1.8099,3.4546 -5.5332,11.1583 -8.375,10.3762 z m 44.1913,13.0176 c -4.1703,2.6274 -8.0459,4.058 -13.3968,2.5032 -43.7698,42.6904 -58.9292,64.594 -58.6111,70.3775 0,0 -0.7906,-4.8821 -0.9769,-6.5191 0,-0.007 -8e-4,-0.0156 -0.002,-0.025 -0.1761,-1.6038 0.0314,-3.2303 0.5561,-4.7591 l 0.146,-0.4274 c 4.8181,-11.6708 24.6198,-34.9832 54.0845,-63.5312 -3.1952,-12.4838 13.0476,-19.7468 20.77,-14.7277 3.3208,2.158 7.062,9.1786 -2.5696,17.1088 z M 421.598,334.616 c -2.971,-7.7193 -6.0432,-15.7022 -7.6419,-39.4769 -13.743,-4.673 -14.3365,-22.4555 -0.9332,-27.9808 13.3713,-5.5134 26.443,6.514 20.8752,19.2095 -1.7946,4.0924 -5.0502,7.0206 -9.6727,8.6995 0.6378,11.7122 0.663,12.17 1.3575,17.8543 16.3763,-15.2178 31.1264,-29.3975 54.0281,-53.0367 -4.4623,-15.221 9.0298,-24.9336 17.6978,-19.9123 10.3743,6.0106 7.1717,25.0194 -4.6312,27.4864 -3.2908,0.688 -5.3521,-0.1513 -7.3477,-0.9638 -16.2125,16.8373 -34.4685,35.3254 -58.0842,56.4285 0.851,3.3786 2.1303,7.8505 3.2675,11.1452 5.3343,15.7644 -14.1443,18.012 -14.3558,17.9893 l -2.9057,-0.472 -5.3439,-1.0755 c 1.5896,-0.0195 3.5679,-0.0408 11.8017,-5.6247 3.3211,-2.7193 3.7985,-5.3105 1.8885,-10.27 z m -78.0633,-35.0861 c 4.2658,-1.2827 16.6731,13.1372 17.5833,19.0899 0.4314,2.8219 13.8844,12.3812 19.955,16.3092 4.4938,2.8275 15.0163,9.4507 17.0445,12.3809 -0.0783,0.0805 -0.1846,0.1865 -0.2628,0.2653 -0.1885,-0.0216 -0.4402,-0.0488 -0.6307,-0.0706 l -1.2214,-0.419 v 0 l -6.0203,-2.5137 c -0.5026,-1.3697 -4.8483,-4.2874 -8.4041,-6.4953 -8.1496,-5.0559 -12.2395,-7.5938 -22.1746,-16.5821 -8.5859,-2.638 -19.7776,-20.7893 -15.8689,-21.9646 z m 153.0629,-2.3802 c 6.9367,2.2252 6.1625,13.4705 -3.2459,18.1873 -3.3906,1.6997 -6.0965,1.5154 -7.5493,1.4154 -30.2808,28.6959 -43.3658,35.6462 -49.011,36.4238 l -5.7889,0.0751 v 0 l -2.6802,-0.0672 c 12.0719,-1.3025 43.2236,-30.5084 52.4835,-39.4277 -4.2718,-9.1116 8.7032,-18.879 15.7918,-16.6067 z m -22.6463,39.8557 c 5.6381,-4.563 17.2083,-5.8919 17.3818,-3.5502 0.0533,0.7118 -1.05,1.5188 -1.9361,2.1685 -0.5666,0.3632 -1.33,0.8349 -1.9199,1.1583 -2.1183,1.1667 -4.5249,1.6639 -6.6483,2.8185 -4.419,2.4074 -8.1967,5.8478 -12.8821,7.8219 -0.4569,0.1684 -1.0672,0.3917 -1.5324,0.5338 v 0 c -2.3295,0.7154 -5.2064,1.4876 -7.9228,2.1614 3.6581,-1.0341 7.6127,-2.9211 16.4511,-9.4315 -4.8183,-0.3668 -1.6702,-3.1311 -0.9913,-3.6807 z m -141.4275,-48.9839 -2.2295,-5.216 -0.1916,-0.5352 c -0.7197,-2.463 -2.4055,-8.2346 45.4467,-57.5674 -3.4038,-15.7082 12.7063,-24.9488 21.8784,-19.421 10.584,6.3774 4.9255,24.8389 -8.4064,27.4366 -3.8234,0.7438 -6.0214,-0.2282 -8.1482,-1.1679 -14.1182,14.4686 -29.7122,30.5824 -41.7444,45.9348 4.6341,3.3568 6.3025,4.7815 10.6928,6.5943 4.8025,2.1529 8.1363,4.4782 13.2101,9.212 30.0458,-31.3174 65.0086,-65.533 83.1741,-83.141 -6.1214,-14.4768 7.6986,-23.1993 18.4709,-18.9621 12.2383,4.8135 13.841,20.6521 2.6367,26.0748 -5.9224,2.8647 -11.1744,0.8623 -13.6992,-0.1003 -45.0142,44.2882 -71.8467,71.1918 -83.8352,83.2875 3.9268,3.8753 9.2565,8.9513 13.4016,12.5949 13.1536,-2.8227 25.581,10.2138 21.7239,16.4308 -4.7381,7.639 -24.0486,0.6567 -26.1528,-9.4567 -0.172,-0.8323 -0.0924,-1.9908 0.01,-2.8341 -9.9278,-8.8177 -10.7394,-9.5374 -16.5583,-16.0325 -7.5215,-8.1694 -18.743,-11.1753 -26.6754,-18.7716 -1.7714,2.7718 -2.3503,3.8285 -3.0039,5.6401 z m 125.9677,62.0961 c -1.3471,0.333 -2.6564,0.6449 -3.8356,0.9088 l 0.644,-0.1361 c 1.1104,-0.2449 2.1388,-0.4757 3.1916,-0.7727 z m -0.8929,-202.9442 c -3.0632,2.0608 -2.45,6.8326 0.9958,7.2249 0.9411,0.1075 2.4244,-0.1902 3.4361,-0.2653 25.9818,-1.9284 45.3955,15.1957 47.5946,40.7129 0.0876,1.0176 0.032,2.5387 0.2877,3.4568 0.9346,3.3605 5.7126,3.2091 7.2459,-0.1627 0.6355,-1.3974 0.4329,-2.7073 0.3234,-4.193 -2.241,-30.405 -25.7255,-50.3779 -55.8224,-47.7638 -1.4748,0.1285 -2.7921,0.1358 -4.0611,0.9902 z m 0.7358,14.1293 c -3.0622,2.061 -1.6996,7.2666 1.7615,7.4718 5.9816,0.3532 10.4275,-0.7285 19.2835,3.8095 6.6232,3.3945 11.2706,9.3155 14.0187,16.1603 1.8496,4.6063 1.3785,7.2139 2.361,10.7467 0.9343,3.3605 5.9137,3.4881 7.4475,0.1168 0.6349,-1.3975 0.2758,-2.9911 0.1219,-4.4725 -2.0821,-20.0466 -19.4312,-35.3225 -40.4785,-34.7828 -1.4797,0.038 -3.2462,0.0958 -4.5156,0.9502 z m 3.4212,22.043 c 10.5502,0.2682 17.856,6.1577 19.1276,16.5342 0.9544,3.4331 6.321,3.4691 7.5994,0.6795 0.388,-0.8456 0.3073,-1.8145 0.2004,-3.0044 -0.4754,-5.3207 -3.6411,-11.0696 -8.1901,-15.1696 -5.205,-4.6914 -12.28,-7.21 -17.7466,-6.9877 -0.9355,0.0382 -1.7975,0.2131 -2.5112,0.5147 -2.9727,1.2561 -2.3264,5.6914 0.1085,7.0288 0.4178,0.2296 0.891,0.3736 1.412,0.4045 z" style="fill:url(#fav-g2)"/>
</svg>
