<svg xmlns="http://www.w3.org/2000/svg" viewBox="0 0 64 64">
  <!-- rounded square background -->
  <rect width="64" height="64" rx="14" fill="#1a3a1a"/>
  <!-- sunburst rays — prana brand palette, centered at 32,32 -->
  <rect x="29.5" y="6"  width="5" height="13" rx="2.5" fill="#e55a2b" transform="rotate(0   32 32)"/>
  <rect x="29.5" y="6"  width="5" height="13" rx="2.5" fill="#f0a500" transform="rotate(45  32 32)"/>
  <rect x="29.5" y="6"  width="5" height="13" rx="2.5" fill="#d6aa01" transform="rotate(90  32 32)"/>
  <rect x="29.5" y="6"  width="5" height="13" rx="2.5" fill="#5aab3f" transform="rotate(135 32 32)"/>
  <rect x="29.5" y="6"  width="5" height="13" rx="2.5" fill="#2e7d32" transform="rotate(180 32 32)"/>
  <rect x="29.5" y="6"  width="5" height="13" rx="2.5" fill="#4caf50" transform="rotate(225 32 32)"/>
  <rect x="29.5" y="6"  width="5" height="13" rx="2.5" fill="#81c784" transform="rotate(270 32 32)"/>
  <rect x="29.5" y="6"  width="5" height="13" rx="2.5" fill="#a5d6a7" transform="rotate(315 32 32)"/>
</svg>
